Coordinates
nRows=328
nColumns=2
inDegrees=yes
endheader
time	ankle_angle_r	
8.5494	 -0.473022	
8.58266	 -0.503540	
8.61593	 -0.473022	
8.64919	 -0.452970	
8.68246	 -0.518799	
8.71573	 -0.473022	
8.74899	 -0.478106	
8.78226	 -0.508720	
8.81552	 -0.473022	
8.84879	 -0.487420	
8.88206	 -0.518799	
8.91532	 -0.468897	
8.94859	 -0.507472	
8.98185	 -0.528297	
9.01512	 -0.488281	
9.04839	 -0.512845	
9.08165	 -0.528007	
9.11492	 -0.494428	
9.14819	 -0.536829	
9.18145	 -0.542976	
9.21472	 -0.499488	
9.24798	 -0.529716	
9.28125	 -0.536056	
9.31452	 -0.512072	
9.34778	 -0.542493	
9.38105	 -0.547898	
9.41431	 -0.518799	
9.44758	 -0.541171	
9.48085	 -0.542106	
9.51411	 -0.511492	
9.54738	 -0.572430	
9.58065	 -0.541816	
9.61391	 -0.518799	
9.64718	 -0.557010	
9.68044	 -0.541526	
9.71371	 -0.503540	
9.74698	 -0.557300	
9.78024	 -0.541236	
9.81351	 -0.509526	
9.84677	 -0.550606	
9.88004	 -0.549316	
9.91331	 -0.512007	
9.94657	 -0.540752	
9.97984	 -0.540656	
10.0131	 -0.497039	
10.0464	 -0.551766	
10.0796	 -0.561932	
10.1129	 -0.497329	
10.1462	 -0.549316	
10.1794	 -0.543298	
10.2127	 -0.494203	
10.246	 -0.534058	
10.2792	 -0.543589	
10.3125	 -0.457764	
10.3458	 -0.518799	
10.379	 -0.507923	
10.4123	 -0.478364	
10.4456	 -0.528813	
10.4788	 -0.493244	
10.5121	 -0.478074	
10.5454	 -0.519194	
10.5786	 -0.483424	
10.6119	 -0.462525	
10.6452	 -0.509470	
10.6784	 -0.473022	
10.7117	 -0.448822	
10.745	 -0.473022	
10.7782	 -0.444931	
10.8115	 -0.457764	
10.8448	 -0.457764	
10.878	 -0.427246	
10.9113	 -0.434723	
10.9446	 -0.465434	
10.9778	 -0.438807	
11.0111	 -0.457764	
11.0444	 -0.469518	
11.0776	 -0.415395	
11.1109	 -0.439194	
11.1442	 -0.488281	
11.1774	 -0.430363	
11.2107	 -0.421205	
11.244	 -0.454840	
11.2772	 -0.402383	
11.3105	 -0.414718	
11.3437	 -0.473022	
11.377	 -0.414525	
11.4103	 -0.424806	
11.4435	 -0.470679	
11.4768	 -0.431741	
11.5101	 -0.409837	
11.5433	 -0.488281	
11.5766	 -0.415902	
11.6099	 -0.440644	
11.6431	 -0.488281	
11.6764	 -0.456097	
11.7097	 -0.430387	
11.7429	 -0.518799	
11.7762	 -0.488281	
11.8095	 -0.460324	
11.8427	 -0.518799	
11.876	 -0.487194	
11.9093	 -0.489272	
11.9425	 -0.504434	
11.9758	 -0.488281	
12.0091	 -0.504240	
12.0423	 -0.504747	
12.0756	 -0.488788	
12.1089	 -0.549727	
12.1421	 -0.518799	
12.1754	 -0.503757	
12.2087	 -0.519159	
12.2419	 -0.549316	
12.2752	 -0.518652	
12.3085	 -0.518799	
12.3417	 -0.533791	
12.375	 -0.488645	
12.4083	 -0.548856	
12.4415	 -0.533501	
12.4748	 -0.488935	
12.5081	 -0.563075	
12.5413	 -0.549316	
12.5746	 -0.474909	
12.6079	 -0.564575	
12.6411	 -0.547043	
12.6744	 -0.488281	
12.7077	 -0.564575	
12.7409	 -0.547890	
12.7742	 -0.517275	
12.8075	 -0.564575	
12.8407	 -0.545883	
12.874	 -0.491908	
12.9073	 -0.562665	
12.9405	 -0.549316	
12.9738	 -0.505644	
13.0071	 -0.549316	
13.0403	 -0.557684	
13.0736	 -0.518799	
13.1069	 -0.549316	
13.1401	 -0.567162	
13.1734	 -0.493649	
13.2067	 -0.521579	
13.2399	 -0.567452	
13.2732	 -0.500566	
13.3065	 -0.549316	
13.3397	 -0.567742	
13.373	 -0.506804	
13.4062	 -0.542595	
13.4395	 -0.552774	
13.4728	 -0.499986	
13.506	 -0.526100	
13.5393	 -0.534058	
13.5726	 -0.514955	
13.6058	 -0.526176	
13.6391	 -0.500393	
13.6724	 -0.481291	
13.7056	 -0.534058	
13.7389	 -0.470746	
13.7722	 -0.477447	
13.8054	 -0.518799	
13.8387	 -0.477640	
13.872	 -0.462478	
13.9052	 -0.513988	
13.9385	 -0.462671	
13.9718	 -0.447509	
14.005	 -0.473022	
14.0383	 -0.427246	
14.0716	 -0.402023	
14.1048	 -0.473022	
14.1381	 -0.411987	
14.1714	 -0.417572	
14.2046	 -0.473022	
14.2379	 -0.417765	
14.2712	 -0.433120	
14.3044	 -0.467051	
14.3377	 -0.411987	
14.371	 -0.409057	
14.4042	 -0.457764	
14.4375	 -0.442505	
14.4708	 -0.411987	
14.504	 -0.442505	
14.5373	 -0.420598	
14.5706	 -0.449249	
14.6038	 -0.486705	
14.6371	 -0.459147	
14.6704	 -0.419022	
14.7036	 -0.488281	
14.7369	 -0.465794	
14.7702	 -0.449830	
14.8034	 -0.488281	
14.8367	 -0.480763	
14.87	 -0.450120	
14.9032	 -0.518799	
14.9365	 -0.488281	
14.9698	 -0.450410	
15.003	 -0.510797	
15.0363	 -0.473022	
15.0696	 -0.480086	
15.1028	 -0.518799	
15.1361	 -0.471505	
15.1694	 -0.471311	
15.2026	 -0.503540	
15.2359	 -0.457764	
15.2692	 -0.485990	
15.3024	 -0.525186	
15.3357	 -0.475700	
15.369	 -0.494475	
15.4022	 -0.527961	
15.4355	 -0.473022	
15.4687	 -0.488281	
15.502	 -0.518799	
15.5353	 -0.482571	
15.5685	 -0.538089	
15.6018	 -0.509057	
15.6351	 -0.478443	
15.6683	 -0.503540	
15.7016	 -0.534058	
15.7349	 -0.467892	
15.7681	 -0.523832	
15.8014	 -0.534058	
15.8347	 -0.498700	
15.8679	 -0.534058	
15.9012	 -0.523446	
15.9345	 -0.503540	
15.9677	 -0.549316	
16.001	 -0.534058	
16.0343	 -0.503540	
16.0675	 -0.538221	
16.1008	 -0.529991	
16.1341	 -0.476992	
16.1673	 -0.522672	
16.2006	 -0.553093	
16.2339	 -0.484601	
16.2671	 -0.530474	
16.3004	 -0.527085	
16.3337	 -0.469633	
16.3669	 -0.512212	
16.4002	 -0.488281	
16.4335	 -0.485181	
16.4667	 -0.509789	
16.5	 -0.521705	
16.5333	 -0.473022	
16.5665	 -0.516086	
16.5998	 -0.513566	
16.6331	 -0.460283	
16.6663	 -0.516376	
16.6996	 -0.534058	
16.7329	 -0.473022	
16.7661	 -0.534058	
16.7994	 -0.549316	
16.8327	 -0.488281	
16.8659	 -0.534058	
16.8992	 -0.547570	
16.9325	 -0.488281	
16.9657	 -0.534058	
16.999	 -0.518799	
17.0323	 -0.489641	
17.0655	 -0.523850	
17.0988	 -0.546984	
17.1321	 -0.488281	
17.1653	 -0.534058	
17.1986	 -0.517923	
17.2319	 -0.489061	
17.2651	 -0.533375	
17.2984	 -0.532300	
17.3317	 -0.488281	
17.3649	 -0.548531	
17.3982	 -0.502948	
17.4315	 -0.472823	
17.4647	 -0.533853	
17.498	 -0.503528	
17.5312	 -0.473204	
17.5645	 -0.518799	
17.5978	 -0.503540	
17.631	 -0.473022	
17.6643	 -0.519276	
17.6976	 -0.474171	
17.7308	 -0.502198	
17.7641	 -0.505075	
17.7974	 -0.473887	
17.8306	 -0.473983	
17.8639	 -0.518799	
17.8972	 -0.471868	
17.9304	 -0.459015	
17.9637	 -0.504888	
17.997	 -0.459208	
18.0302	 -0.473022	
18.0635	 -0.520437	
18.0968	 -0.457764	
18.13	 -0.473022	
18.1633	 -0.505468	
18.1966	 -0.457764	
18.2298	 -0.444626	
18.2631	 -0.490499	
18.2964	 -0.444819	
18.3296	 -0.457764	
18.3629	 -0.518799	
18.3962	 -0.460368	
18.4294	 -0.467620	
18.4627	 -0.528462	
18.496	 -0.473022	
18.5292	 -0.445496	
18.5625	 -0.518799	
18.5958	 -0.473022	
18.629	 -0.457764	
18.6623	 -0.515421	
18.6956	 -0.473022	
18.7288	 -0.461335	
18.7621	 -0.507208	
18.7954	 -0.480751	
18.8286	 -0.461625	
18.8619	 -0.522757	
18.8952	 -0.461819	
18.9284	 -0.453612	
18.9617	 -0.496778	
18.995	 -0.494850	
19.0282	 -0.468581	
19.0615	 -0.497358	
19.0948	 -0.473022	
19.128	 -0.509335	
19.1613	 -0.529229	
19.1946	 -0.483356	
19.2278	 -0.513777	
19.2611	 -0.513680	
19.2944	 -0.483066	
19.3276	 -0.508175	
19.3609	 -0.528649	
19.3942	 -0.488281	
19.4274	 -0.534058	
